<svg width="112" height="48" viewBox="0 0 112 48" fill="none" xmlns="http://www.w3.org/2000/svg">
<path fill-rule="evenodd" clip-rule="evenodd" d="M111.05 47.9999H97.4229L85.0161 26.4406L79.1469 16.3651L79.1185 16.4746L79.1174 16.4749L75.4376 23.1131L89.7875 47.7965H76.0676L57.8959 16.8448L53.0834 23.3899L46.7783 12.4069L54.5071 0.406879H62.2359L62.2345 0.415675L62.2371 0.406784L68.4576 11.1067L76.0677 3.24249e-05L83.389 0L83.3897 3.24249e-05L83.3895 0.000804476L111.05 47.9999ZM13.6271 2.18829e-05H0L27.6606 47.9992L27.6604 48H34.9824L42.5925 36.8933L48.813 47.5932L48.8155 47.5846L48.8141 47.5931H56.5429L64.2717 35.5931L57.9666 24.6101L53.1541 31.1551L34.9824 0.203474H21.2625L35.6125 24.8869L31.9326 31.5251L31.9316 31.5254L31.9032 31.6349L26.0339 21.5593L13.6271 2.18829e-05Z" fill="#C9BB9C"/>
</svg>
